<svg xmlns="http://www.w3.org/2000/svg" viewBox="0 0 512 512"><linearGradient id="a" gradientUnits="userSpaceOnUse" x1="236.938" y1="-63.102" x2="236.938" y2="545.395" gradientTransform="matrix(1.0667 0 0 -1.0667 3.267 557.533)"><stop offset="0" stop-color="#fff"/><stop offset="1" stop-color="#e8efee"/></linearGradient><circle cx="256" cy="256" r="256" fill="url(#a)"/><linearGradient id="b" gradientUnits="userSpaceOnUse" x1="236.938" y1="617.278" x2="236.938" y2="28.497" gradientTransform="matrix(1.0667 0 0 -1.0667 3.267 557.533)"><stop offset="0" stop-color="#fff"/><stop offset="1" stop-color="#e8efee"/></linearGradient><circle cx="256" cy="256" r="247.701" fill="url(#b)"/><linearGradient id="c" gradientUnits="userSpaceOnUse" x1="123.188" y1="396.438" x2="339.637" y2="179.988" gradientTransform="matrix(1.0667 0 0 -1.0667 3.267 557.533)"><stop offset="0" stop-color="#00a6f9"/><stop offset="1" stop-color="#0071e2"/></linearGradient><circle cx="256" cy="256" r="223.392" fill="url(#c)"/><radialGradient id="d" cx="242.637" cy="276.358" r="226.11" gradientTransform="matrix(1.0667 0 0 -1.0667 3.267 557.533)" gradientUnits="userSpaceOnUse"><stop offset="0" stop-color="#00a6f9" stop-opacity="0"/><stop offset=".454" stop-color="#00a4f9" stop-opacity=".453"/><stop offset=".617" stop-color="#009df7" stop-opacity=".617"/><stop offset=".734" stop-color="#0092f4" stop-opacity=".733"/><stop offset=".828" stop-color="#0081f0" stop-opacity=".827"/><stop offset=".908" stop-color="#006beb" stop-opacity=".908"/><stop offset=".978" stop-color="#0050e4" stop-opacity=".978"/><stop offset="1" stop-color="#0046e2"/></radialGradient><circle cx="256" cy="256" r="223.392" fill="url(#d)"/><path d="M319.138 265.652L390.179 256l-71.041-9.652c-15.316-2.081-22.7-19.906-13.341-32.208l25.242-33.18-33.18 25.242c-12.302 9.359-30.127 1.975-32.208-13.341l-9.652-71.041-9.652 71.041c-2.081 15.316-19.906 22.7-32.208 13.341l-33.18-25.242 25.242 33.18c9.359 12.302 1.975 30.127-13.341 32.208L121.819 256l71.041 9.652c15.316 2.081 22.7 19.906 13.341 32.208l-25.242 33.18 33.18-25.242c12.302-9.359 30.127-1.975 32.208 13.341l9.652 71.041 9.652-71.041c2.081-15.316 19.906-22.7 32.208-13.341l33.18 25.242-25.242-33.18c-9.358-12.302-1.975-30.127 13.341-32.208z" fill="#0071e2"/><linearGradient id="e" gradientUnits="userSpaceOnUse" x1="373.339" y1="146.289" x2="192.279" y2="327.339" gradientTransform="matrix(1.0667 0 0 -1.0667 3.267 557.533)"><stop offset="0" stop-color="#008bf2" stop-opacity="0"/><stop offset="1" stop-color="#0046e2"/></linearGradient><path d="M479.345 259.798L367.898 148.351c-1.123-3.569-5.423-5.953-9.347-3.585l-133.324 80.461-80.461 133.323c-1.919 3.18-.72 6.609 1.702 8.395.021.016 66.022 66.018 112.414 112.412 120.781-1.531 218.449-98.896 220.463-219.559z" fill="url(#e)"/><linearGradient id="f" gradientUnits="userSpaceOnUse" x1="271.036" y1="351.986" x2="309.836" y2="313.186" gradientTransform="matrix(1.0667 0 0 -1.0667 3.267 557.533)"><stop offset="0" stop-color="#d63305"/><stop offset=".366" stop-color="#cf3004"/><stop offset=".899" stop-color="#bc2602"/><stop offset="1" stop-color="#b72401"/></linearGradient><path d="M358.55 144.766l-133.324 80.461L256 256l30.773 30.773 80.461-133.324c3.411-5.652-3.031-12.094-8.684-8.683z" fill="url(#f)"/><linearGradient id="g" gradientUnits="userSpaceOnUse" x1="285.636" y1="337.386" x2="315.276" y2="307.746" gradientTransform="matrix(1.0667 0 0 -1.0667 3.267 557.533)"><stop offset="0" stop-color="#960000"/><stop offset=".331" stop-color="#9c0700" stop-opacity=".669"/><stop offset=".812" stop-color="#ae1a01" stop-opacity=".188"/><stop offset="1" stop-color="#b72401" stop-opacity="0"/></linearGradient><path d="M366.291 145.71L256 256l30.772 30.772 80.461-133.324c1.707-2.824.948-5.848-.942-7.738z" fill="url(#g)"/><linearGradient id="h" gradientUnits="userSpaceOnUse" x1="162.439" y1="253.789" x2="228.699" y2="187.529" gradientTransform="matrix(1.0667 0 0 -1.0667 3.267 557.533)"><stop offset="0" stop-color="#fff"/><stop offset="1" stop-color="#e8efee"/></linearGradient><path d="M144.766 358.55l80.461-133.324L256 256l30.773 30.773-133.323 80.461c-5.653 3.411-12.095-3.031-8.684-8.684z" fill="url(#h)"/><linearGradient id="i" gradientUnits="userSpaceOnUse" x1="221.037" y1="195.187" x2="156.647" y2="259.587" gradientTransform="matrix(1.0667 0 0 -1.0667 3.267 557.533)"><stop offset="0" stop-color="#c2cece" stop-opacity="0"/><stop offset=".179" stop-color="#afbcbc" stop-opacity=".179"/><stop offset="1" stop-color="#5b6a6a"/></linearGradient><path d="M145.71 366.291L256 256l30.772 30.772-133.324 80.461c-2.824 1.707-5.848.948-7.738-.942z" fill="url(#i)"/><linearGradient id="j" gradientUnits="userSpaceOnUse" x1="251.137" y1="282.887" x2="271.137" y2="262.887" gradientTransform="matrix(1.0667 0 0 -1.0667 3.267 557.533)"><stop offset="0" stop-color="#960000"/><stop offset=".331" stop-color="#9c0700" stop-opacity=".669"/><stop offset=".812" stop-color="#ae1a01" stop-opacity=".188"/><stop offset="1" stop-color="#b72401" stop-opacity="0"/></linearGradient><path d="M271.973 241.26c-.197-.213-.417-.404-.622-.61L256 256l30.772 30.772 11.559-19.154-26.358-26.358z" fill="url(#j)"/><linearGradient id="k" gradientUnits="userSpaceOnUse" x1="265.538" y1="239.688" x2="201.148" y2="304.078" gradientTransform="matrix(1.0667 0 0 -1.0667 3.267 557.533)"><stop offset="0" stop-color="#c2cece" stop-opacity="0"/><stop offset=".179" stop-color="#afbcbc" stop-opacity=".179"/><stop offset="1" stop-color="#5b6a6a"/></linearGradient><path d="M240.65 271.351c.206.206.397.426.61.622l26.358 26.358 19.154-11.559L256 256l-15.35 15.351z" fill="url(#k)"/><linearGradient id="l" gradientUnits="userSpaceOnUse" x1="236.938" y1="287.887" x2="236.938" y2="267.067" gradientTransform="matrix(1.0667 0 0 -1.0667 3.267 557.533)"><stop offset="0" stop-color="#c2cece"/><stop offset="1" stop-color="#97aaaa"/></linearGradient><circle cx="256" cy="256" r="21.76" fill="url(#l)"/><path d="M256.797 50.876h-1.594c-6.457 0-11.691 5.234-11.691 11.691V77.11c0 6.457 5.234 11.691 11.691 11.691h1.594c6.457 0 11.691-5.234 11.691-11.691V62.567c-.001-6.456-5.235-11.691-11.691-11.691zm0 372.322h-1.594c-6.457 0-11.691 5.234-11.691 11.691v14.544c0 6.457 5.234 11.691 11.691 11.691h1.594c6.457 0 11.691-5.234 11.691-11.691v-14.544c-.001-6.457-5.235-11.691-11.691-11.691zm192.636-179.685h-14.544c-6.457 0-11.691 5.234-11.691 11.691v1.594c0 6.457 5.234 11.691 11.691 11.691h14.544c6.457 0 11.691-5.234 11.691-11.691v-1.594c0-6.457-5.235-11.691-11.691-11.691zM88.802 256.797v-1.594c0-6.457-5.234-11.691-11.691-11.691H62.567c-6.457 0-11.691 5.234-11.691 11.691v1.594c0 6.457 5.234 11.691 11.691 11.691h14.544c6.457-.001 11.691-5.235 11.691-11.691zm4.58-73.415l-23.042-8.775c-1.983-.754-4.182.245-4.956 2.223a3.842 3.842 0 002.222 4.956l23.042 8.775a3.841 3.841 0 002.734-7.179zm351.009 146.833l-23.042-8.775c-1.983-.754-4.182.245-4.956 2.222a3.842 3.842 0 002.222 4.956l23.042 8.775a3.841 3.841 0 002.734-7.178zM335.171 65.386a3.842 3.842 0 00-4.956 2.222L321.44 90.65a3.841 3.841 0 007.178 2.733l8.775-23.042c.754-1.983-.244-4.183-2.222-4.955zM188.337 416.395a3.842 3.842 0 00-4.956 2.222l-8.775 23.042a3.841 3.841 0 007.178 2.733l8.775-23.042c.755-1.983-.244-4.183-2.222-4.955zm-56.112-37.983a3.84 3.84 0 00-5.428.162l-16.908 17.947c-1.454 1.545-1.371 3.959.162 5.428a3.84 3.84 0 005.428-.162l16.908-17.947a3.842 3.842 0 00-.162-5.428zm269.724-268.361a3.84 3.84 0 00-5.428.162l-16.908 17.947c-1.454 1.545-1.371 3.959.162 5.428a3.84 3.84 0 005.428-.162l16.908-17.947a3.842 3.842 0 00-.162-5.428zm-286.47-.162c-1.545-1.454-3.959-1.371-5.428.162a3.84 3.84 0 00.162 5.428l17.947 16.908a3.842 3.842 0 005.429-.162 3.84 3.84 0 00-.162-5.428l-17.948-16.908zM383.84 379.612c-1.545-1.454-3.959-1.371-5.428.162a3.84 3.84 0 00.162 5.428l17.947 16.908a3.842 3.842 0 005.429-.162 3.84 3.84 0 00-.162-5.428l-17.948-16.908zM94.739 321.571a3.841 3.841 0 00-5.075-1.933l-22.498 10.089c-1.935.868-2.784 3.131-1.933 5.075a3.84 3.84 0 005.075 1.933l22.498-10.089a3.84 3.84 0 001.982-4.959l-.049-.116zm327.597-129.209l22.498-10.089a3.84 3.84 0 10-3.143-7.008l-22.498 10.089c-1.935.868-2.784 3.131-1.933 5.075a3.842 3.842 0 005.076 1.933zM182.273 67.165c-.868-1.935-3.131-2.784-5.075-1.933a3.841 3.841 0 00-1.933 5.075l10.089 22.498a3.84 3.84 0 107.008-3.143l-10.089-22.497zm144.373 352.028c-.868-1.935-3.131-2.784-5.075-1.933a3.841 3.841 0 00-1.933 5.075l10.089 22.498a3.84 3.84 0 107.008-3.143l-10.089-22.497z" fill="#fff"/></svg>